<?xml version="1.0" encoding="UTF-8"?>
<svg version="1.1" xmlns="http://www.w3.org/2000/svg" width="256" height="224">
<path d="M0 0 C84.48 0 168.96 0 256 0 C256 73.92 256 147.84 256 224 C171.52 224 87.04 224 0 224 C0 150.08 0 76.16 0 0 Z " fill="#181818" transform="translate(0,0)"/>
<path d="M0 0 C-0.45928086 14.3683963 -1.10507041 28.71528231 -2 43.0625 C-2.04179382 43.7433667 -2.08358765 44.4242334 -2.12664795 45.12573242 C-2.57863828 52.44333427 -3.10722205 59.7222655 -4 67 C-7.3 67 -10.6 67 -14 67 C-14.22111035 60.25613419 -13.7612068 53.70066118 -13.0625 47 C-12.97564941 46.15074951 -12.88879883 45.30149902 -12.79931641 44.42651367 C-12.71214355 43.62576416 -12.6249707 42.82501465 -12.53515625 42 C-12.456604 41.278125 -12.37805176 40.55625 -12.29711914 39.8125 C-12 38 -12 38 -11 36 C-23.21 36 -35.42 36 -48 36 C-49.32 41.94 -50.64 47.88 -52 54 C-52.99485123 58.33470895 -53.98991842 62.6688926 -55 67 C-58.3 67 -61.6 67 -65 67 C-64.31005822 60.79052394 -62.70642393 55.00957993 -61 49 C-67.6 49 -74.2 49 -81 49 C-81 48.67 -81 48.34 -81 48 C-70.605 47.505 -70.605 47.505 -60 47 C-59.67 45.35 -59.34 43.7 -59 42 C-68.24 42 -77.48 42 -87 42 C-87 41.67 -87 41.34 -87 41 C-77.43 41 -67.86 41 -58 41 C-57.67 39.02 -57.34 37.04 -57 35 C-60.96 35 -64.92 35 -69 35 C-69 34.67 -69 34.34 -69 34 C-64.71 34 -60.42 34 -56 34 C-55.9175 32.96875 -55.835 31.9375 -55.75 30.875 C-54.96869242 24.41463584 -52.87526003 18.21016344 -51 12 C-53.31 11.67 -55.62 11.34 -58 11 C-58 10.67 -58 10.34 -58 10 C-55.36 10 -52.72 10 -50 10 C-50 9.34 -50 8.68 -50 8 C-54.29 7.67 -58.58 7.34 -63 7 C-63 6.67 -63 6.34 -63 6 C-58.38 6 -53.76 6 -49 6 C-49 5.34 -49 4.68 -49 4 C-49.66 3.34 -50.32 2.68 -51 2 C-48.24921116 1.08307039 -46.64051087 0.89113917 -43.8125 0.9375 C-41.9253125 0.9684375 -41.9253125 0.9684375 -40 1 C-41.37780533 9.08852776 -43.15102563 16.98777775 -45 25 C-33.45 25 -21.9 25 -10 25 C-9.67 19.39 -9.34 13.78 -9 8 C-8.67 7.34 -8.34 6.68 -8 6 C-9.65 6 -11.3 6 -13 6 C-13 5.67 -13 5.34 -13 5 C-11.35 5 -9.7 5 -8 5 C-8 4.01 -8 3.02 -8 2 C-10.97 2 -13.94 2 -17 2 C-17 1.67 -17 1.34 -17 1 C-15.6674398 0.82726071 -14.33388058 0.66222872 -13 0.5 C-12.2575 0.4071875 -11.515 0.314375 -10.75 0.21875 C-7.15523722 -0.06719704 -3.60603736 -0.03055964 0 0 Z " fill="#B66949" transform="translate(117,80)"/>
<path d="M0 0 C1.56814453 -0.03867187 1.56814453 -0.03867187 3.16796875 -0.078125 C5.8125 0.25 5.8125 0.25 7.61328125 1.703125 C8.00902344 2.21359375 8.40476562 2.7240625 8.8125 3.25 C9.1425 3.58 9.4725 3.91 9.8125 4.25 C10.1425 3.59 10.4725 2.93 10.8125 2.25 C10.1525 1.92 9.4925 1.59 8.8125 1.25 C11.81265912 0.24994696 13.78673756 0.13424415 16.91796875 0.15234375 C17.90087891 0.15556641 18.88378906 0.15878906 19.89648438 0.16210938 C21.43272461 0.17467773 21.43272461 0.17467773 23 0.1875 C24.55364258 0.19426758 24.55364258 0.19426758 26.13867188 0.20117188 C28.69667266 0.2129599 31.25455733 0.22941485 33.8125 0.25 C34.3075 1.735 34.3075 1.735 34.8125 3.25 C35.4725 3.58 36.1325 3.91 36.8125 4.25 C40.58392857 7.79285714 40.58392857 7.79285714 41.8125 10.25 C42.4725 6.95 43.1325 3.65 43.8125 0.25 C53.0525 0.25 62.2925 0.25 71.8125 0.25 C71.8125 1.57 71.8125 2.89 71.8125 4.25 C69.82682292 4.47786458 67.84114583 4.70572917 65.85546875 4.93359375 C63.61853607 5.22170735 63.61853607 5.22170735 60.8125 6.25 C59.45830318 6.26877105 58.10307711 6.24566967 56.75 6.1875 C52.80525213 5.79338439 52.80525213 5.79338439 50.8125 8.25 C49.8225 8.25 48.8325 8.25 47.8125 8.25 C47.4825 11.88 47.1525 15.51 46.8125 19.25 C45.1625 18.92 43.5125 18.59 41.8125 18.25 C41.8125 17.59 41.8125 16.93 41.8125 16.25 C41.1525 16.25 40.4925 16.25 39.8125 16.25 C39.8125 15.59 39.8125 14.93 39.8125 14.25 C39.1525 14.25 38.4925 14.25 37.8125 14.25 C36.42311923 12.28852126 35.0864589 10.28833424 33.8125 8.25 C33.1525 10.89 32.4925 13.53 31.8125 16.25 C31.07 16.064375 30.3275 15.87875 29.5625 15.6875 C26.58409084 15.02947289 26.58409084 15.02947289 22.8125 16.25 C23.1425 12.62 23.4725 8.99 23.8125 5.25 C20.5125 5.25 17.2125 5.25 13.8125 5.25 C13.4825 7.56 13.1525 9.87 12.8125 12.25 C12.1525 12.25 11.4925 12.25 10.8125 12.25 C10.4825 13.57 10.1525 14.89 9.8125 16.25 C9.1525 16.25 8.4925 16.25 7.8125 16.25 C7.4825 15.59 7.1525 14.93 6.8125 14.25 C6.4825 14.8275 6.1525 15.405 5.8125 16 C2.39981126 19.83927484 -1.08242419 21.98764122 -6.22167969 22.421875 C-11.2164527 22.59373816 -16.19565206 22.45421196 -21.1875 22.25 C-20.1975 18.95 -19.2075 15.65 -18.1875 12.25 C-17.5275 12.25 -16.8675 12.25 -16.1875 12.25 C-16.1875 9.94 -16.1875 7.63 -16.1875 5.25 C-13.5475 5.25 -10.9075 5.25 -8.1875 5.25 C-8.1875 4.26 -8.1875 3.27 -8.1875 2.25 C-12.4775 2.25 -16.7675 2.25 -21.1875 2.25 C-21.1875 1.92 -21.1875 1.59 -21.1875 1.25 C-14.13277586 0.65769932 -7.07907914 0.15943872 0 0 Z " fill="#0F4E62" transform="translate(67.1875,52.75)"/>
<path d="M0 0 C-0.1386402 4.2710989 -0.28713901 8.54179892 -0.4375 12.8125 C-0.47681641 14.02744141 -0.51613281 15.24238281 -0.55664062 16.49414062 C-0.59853516 17.65751953 -0.64042969 18.82089844 -0.68359375 20.01953125 C-0.72025146 21.09307861 -0.75690918 22.16662598 -0.79467773 23.27270508 C-1 26 -1 26 -2 29 C-7.80654227 30.0042434 -13.42365793 30.13044613 -19.30859375 30.09765625 C-20.27531509 30.0962413 -21.24203644 30.09482635 -22.23805237 30.09336853 C-25.30456732 30.08780221 -28.37100738 30.07525599 -31.4375 30.0625 C-33.52538957 30.05748065 -35.61328028 30.0529185 -37.70117188 30.04882812 C-42.8008098 30.03784382 -47.90039223 30.02060255 -53 30 C-54.98 34.95 -54.98 34.95 -57 40 C-57.495 38.515 -57.495 38.515 -58 37 C-57.67 36.34 -57.34 35.68 -57 35 C-60.96 35 -64.92 35 -69 35 C-69 34.67 -69 34.34 -69 34 C-64.71 34 -60.42 34 -56 34 C-55.9175 32.96875 -55.835 31.9375 -55.75 30.875 C-54.96869242 24.41463584 -52.87526003 18.21016344 -51 12 C-53.31 11.67 -55.62 11.34 -58 11 C-58 10.67 -58 10.34 -58 10 C-55.36 10 -52.72 10 -50 10 C-50 9.34 -50 8.68 -50 8 C-54.29 7.67 -58.58 7.34 -63 7 C-63 6.67 -63 6.34 -63 6 C-58.38 6 -53.76 6 -49 6 C-49 5.34 -49 4.68 -49 4 C-49.66 3.34 -50.32 2.68 -51 2 C-48.24921116 1.08307039 -46.64051087 0.89113917 -43.8125 0.9375 C-41.9253125 0.9684375 -41.9253125 0.9684375 -40 1 C-41.37780533 9.08852776 -43.15102563 16.98777775 -45 25 C-33.45 25 -21.9 25 -10 25 C-9.67 19.39 -9.34 13.78 -9 8 C-8.67 7.34 -8.34 6.68 -8 6 C-9.65 6 -11.3 6 -13 6 C-13 5.67 -13 5.34 -13 5 C-11.35 5 -9.7 5 -8 5 C-8 4.01 -8 3.02 -8 2 C-10.97 2 -13.94 2 -17 2 C-17 1.67 -17 1.34 -17 1 C-15.6674398 0.82726071 -14.33388058 0.66222872 -13 0.5 C-12.2575 0.4071875 -11.515 0.314375 -10.75 0.21875 C-7.15523722 -0.06719704 -3.60603736 -0.03055964 0 0 Z " fill="#E48A65" transform="translate(117,80)"/>
<path d="M0 0 C15.51 0 31.02 0 47 0 C49 5 49 5 49 9 C42.4 9 35.8 9 29 9 C29.99 15.93 30.98 22.86 32 30 C29.03 30 26.06 30 23 30 C22.505 27.525 22.505 27.525 22 25 C19.69 25 17.38 25 15 25 C15 24.67 15 24.34 15 24 C16.98 24 18.96 24 21 24 C21 22.68 21 21.36 21 20 C17.37 20 13.74 20 10 20 C10 19.67 10 19.34 10 19 C13.63 19 17.26 19 21 19 C20.505 14.05 20.505 14.05 20 9 C13.4 9 6.8 9 0 9 C0 7.68 0 6.36 0 5 C-1.32 4.67 -2.64 4.34 -4 4 C-2.68 3.34 -1.36 2.68 0 2 C0 1.34 0 0.68 0 0 Z " fill="#F49C78" transform="translate(136,80)"/>
<path d="M0 0 C2.31 0 4.62 0 7 0 C7 22.11 7 44.22 7 67 C3.7 67 0.4 67 -3 67 C-3.12022227 53.21718468 -2.85648648 39.49447198 -2.20043945 25.72680664 C-2.05947032 22.74849064 -1.92878374 19.7698306 -1.79882812 16.79101562 C-1.71153536 14.88799332 -1.62366798 12.98499725 -1.53515625 11.08203125 C-1.49656998 10.19578568 -1.4579837 9.3095401 -1.41822815 8.3964386 C-1.11509666 2.23019331 -1.11509666 2.23019331 0 0 Z " fill="#7F4730" transform="translate(123,80)"/>
<path d="M0 0 C0.98291016 0.00322266 1.96582031 0.00644531 2.97851562 0.00976562 C4.51475586 0.02233398 4.51475586 0.02233398 6.08203125 0.03515625 C7.11779297 0.03966797 8.15355469 0.04417969 9.22070312 0.04882812 C11.77870391 0.06061615 14.33658858 0.0770711 16.89453125 0.09765625 C17.22453125 1.08765625 17.55453125 2.07765625 17.89453125 3.09765625 C18.55453125 3.42765625 19.21453125 3.75765625 19.89453125 4.09765625 C23.66595982 7.64051339 23.66595982 7.64051339 24.89453125 10.09765625 C25.55453125 6.79765625 26.21453125 3.49765625 26.89453125 0.09765625 C36.13453125 0.09765625 45.37453125 0.09765625 54.89453125 0.09765625 C54.89453125 1.41765625 54.89453125 2.73765625 54.89453125 4.09765625 C52.90885417 4.32552083 50.92317708 4.55338542 48.9375 4.78125 C46.70056732 5.0693636 46.70056732 5.0693636 43.89453125 6.09765625 C42.54033443 6.1164273 41.18510836 6.09332592 39.83203125 6.03515625 C35.88728338 5.64104064 35.88728338 5.64104064 33.89453125 8.09765625 C32.90453125 8.09765625 31.91453125 8.09765625 30.89453125 8.09765625 C30.56453125 11.72765625 30.23453125 15.35765625 29.89453125 19.09765625 C28.24453125 18.76765625 26.59453125 18.43765625 24.89453125 18.09765625 C24.89453125 17.43765625 24.89453125 16.77765625 24.89453125 16.09765625 C24.23453125 16.09765625 23.57453125 16.09765625 22.89453125 16.09765625 C22.89453125 15.43765625 22.89453125 14.77765625 22.89453125 14.09765625 C22.23453125 14.09765625 21.57453125 14.09765625 20.89453125 14.09765625 C19.50515048 12.13617751 18.16849015 10.13599049 16.89453125 8.09765625 C16.23453125 10.73765625 15.57453125 13.37765625 14.89453125 16.09765625 C14.15203125 15.91203125 13.40953125 15.72640625 12.64453125 15.53515625 C9.66612209 14.87712914 9.66612209 14.87712914 5.89453125 16.09765625 C6.22453125 12.46765625 6.55453125 8.83765625 6.89453125 5.09765625 C5.14140625 5.09765625 3.38828125 5.09765625 1.58203125 5.09765625 C-1.31380208 5.09765625 -4.20963542 5.09765625 -7.10546875 5.09765625 C-6.77546875 4.10765625 -6.44546875 3.11765625 -6.10546875 2.09765625 C-6.76546875 1.76765625 -7.42546875 1.43765625 -8.10546875 1.09765625 C-5.10530963 0.09760321 -3.13123119 -0.0180996 0 0 Z " fill="#0E4C60" transform="translate(84.10546875,52.90234375)"/>
<path d="M0 0 C5.44430582 -0.07437576 10.88831329 -0.12870866 16.33300781 -0.16479492 C18.18364619 -0.17984471 20.03424911 -0.20028933 21.88476562 -0.22631836 C24.55087045 -0.2628698 27.21650208 -0.27976454 29.8828125 -0.29296875 C30.70492218 -0.30845261 31.52703186 -0.32393646 32.37405396 -0.33988953 C37.35227554 -0.34133506 40.63321767 0.33755254 45 3 C45 3.99 45 4.98 45 6 C42.36 6.33 39.72 6.66 37 7 C39.475 13.435 39.475 13.435 42 20 C39.03 19.67 36.06 19.34 33 19 C32.78085938 18.15695313 32.56171875 17.31390625 32.3359375 16.4453125 C32.01882812 15.34960938 31.70171875 14.25390625 31.375 13.125 C31.07335937 12.03445312 30.77171875 10.94390625 30.4609375 9.8203125 C29.23132502 6.76516332 29.23132502 6.76516332 26.15625 5.59375 C23.20100594 5.037813 21.07494676 4.92803837 18.125 5.375 C17.34382813 5.48585938 16.56265625 5.59671875 15.7578125 5.7109375 C15.17773438 5.80632813 14.59765625 5.90171875 14 6 C14.33 7.65 14.66 9.3 15 11 C13.72125 11.0825 12.4425 11.165 11.125 11.25 C8.94666582 11.45869931 8.94666582 11.45869931 7 12 C5.4100567 13.92064793 5.4100567 13.92064793 5 16 C4.01 16 3.02 16 2 16 C1.34 10.72 0.68 5.44 0 0 Z " fill="#352B3C" transform="translate(165,53)"/>
<path d="M0 0 C2.64 0 5.28 0 8 0 C9.55050556 5.60444347 11.09870008 11.2095183 12.64477539 16.81518555 C13.17083604 18.72128458 13.69752296 20.62721089 14.22485352 22.53295898 C14.9835904 25.27542455 15.74005804 28.01850748 16.49609375 30.76171875 C16.84926918 32.03543587 16.84926918 32.03543587 17.20957947 33.33488464 C18.2741407 37.20551836 19.29321328 41.04410417 20 45 C16.7 45 13.4 45 10 45 C8.99446119 40.89716988 7.9965189 36.79252943 7 32.6875 C6.71382812 31.52025391 6.42765625 30.35300781 6.1328125 29.15039062 C5.86210937 28.03212891 5.59140625 26.91386719 5.3125 25.76171875 C5.06113281 24.73006592 4.80976563 23.69841309 4.55078125 22.63549805 C4 20 4 20 4 17 C0.37 17 -3.26 17 -7 17 C-7 16.67 -7 16.34 -7 16 C-3.7 16 -0.4 16 3 16 C3 15.34 3 14.68 3 14 C1.02 14 -0.96 14 -3 14 C-3 13.67 -3 13.34 -3 13 C-1.35 12.67 0.3 12.34 2 12 C1.34 8.04 0.68 4.08 0 0 Z " fill="#B76A4A" transform="translate(189,80)"/>
<path d="M0 0 C2.97 0 5.94 0 9 0 C10.81021488 5.30996365 11.3308022 10.28894103 11.71484375 15.875 C11.9902728 18.89340058 12.4723956 21.778845 13.0625 24.75 C13.94850579 29.27191104 14.17358277 33.40005664 14 38 C10.37 38 6.74 38 3 38 C2.56983384 33.39211197 2.14267725 28.78395837 1.71826172 24.17553711 C1.57357373 22.60905492 1.42807522 21.04264737 1.28173828 19.47631836 C1.07108941 17.22008263 0.86339256 14.96359126 0.65625 12.70703125 C0.59062866 12.01100296 0.52500732 11.31497467 0.45739746 10.59785461 C0.13491642 7.05259084 -0.07234712 3.56008121 0 0 Z " fill="#7F4730" transform="translate(158,109)"/>
<path d="M0 0 C15.51 0 31.02 0 47 0 C47.66 1.98 48.32 3.96 49 6 C43.47104703 6.93077672 38.1247594 7.16059218 32.5234375 7.16796875 C31.63516266 7.17129715 30.74688782 7.17462555 29.83169556 7.17805481 C27.96429967 7.18309284 26.09689487 7.18546411 24.22949219 7.18530273 C21.37680342 7.18749861 18.52449599 7.20571297 15.671875 7.22460938 C13.85156381 7.2275421 12.0312508 7.2295277 10.2109375 7.23046875 C8.93734879 7.24124702 8.93734879 7.24124702 7.63803101 7.25224304 C3.30406366 7.23553123 -0.05188181 7.02214579 -4 5 C-3.34 4.01 -2.68 3.02 -2 2 C-1.34 2 -0.68 2 0 2 C0 1.34 0 0.68 0 0 Z " fill="#FCE0D4" transform="translate(136,80)"/>
<path d="M0 0 C3.63 0 7.26 0 11 0 C12.26026798 2.52053595 11.91874445 3.8542098 11.5625 6.625 C11.46066406 7.44226563 11.35882813 8.25953125 11.25390625 9.1015625 C11.17011719 9.72804688 11.08632812 10.35453125 11 11 C11.66 11 12.32 11 13 11 C13.66 9.68 14.32 8.36 15 7 C15.28875 7.639375 15.5775 8.27875 15.875 8.9375 C16.82823451 11.15206079 16.82823451 11.15206079 19 12 C19 13.65 19 15.3 19 17 C16.69 17 14.38 17 12 17 C12 16.34 12 15.68 12 15 C11.52046875 15.32742187 11.0409375 15.65484375 10.546875 15.9921875 C6.79520582 17.47674371 3.24319259 17.21108873 -0.75 17.125 C-1.54277344 17.11597656 -2.33554688 17.10695313 -3.15234375 17.09765625 C-5.10169281 17.07417012 -7.05088575 17.03830137 -9 17 C-9.33 16.01 -9.66 15.02 -10 14 C-8.35 12.35 -6.7 10.7 -5 9 C-4.34 9.33 -3.68 9.66 -3 10 C-2.67 9.34 -2.34 8.68 -2 8 C-1.34 8 -0.68 8 0 8 C0 5.36 0 2.72 0 0 Z " fill="#143843" transform="translate(80,57)"/>
<path d="M0 0 C1.56814453 -0.03867187 1.56814453 -0.03867187 3.16796875 -0.078125 C5.8125 0.25 5.8125 0.25 7.67578125 1.765625 C8.05089844 2.25546875 8.42601563 2.7453125 8.8125 3.25 C7.4925 4.24 6.1725 5.23 4.8125 6.25 C4.1525 5.92 3.4925 5.59 2.8125 5.25 C-2.79453213 5.03622279 -2.79453213 5.03622279 -8.1875 6.25 C-8.95862101 8.25471389 -8.95862101 8.25471389 -9.3125 10.625 C-9.80680837 13.28732753 -10.32749007 15.6699702 -11.1875 18.25 C-7.5575 18.58 -3.9275 18.91 -0.1875 19.25 C-4.6875 22.625 -4.6875 22.625 -8.296875 22.54296875 C-9.05097656 22.53330078 -9.80507813 22.52363281 -10.58203125 22.51367188 C-11.35933594 22.48853516 -12.13664062 22.46339844 -12.9375 22.4375 C-14.12666016 22.41719727 -14.12666016 22.41719727 -15.33984375 22.39648438 C-17.28935564 22.36125223 -19.23851626 22.30744821 -21.1875 22.25 C-20.1975 18.95 -19.2075 15.65 -18.1875 12.25 C-17.5275 12.25 -16.8675 12.25 -16.1875 12.25 C-16.1875 9.94 -16.1875 7.63 -16.1875 5.25 C-13.5475 5.25 -10.9075 5.25 -8.1875 5.25 C-8.1875 4.26 -8.1875 3.27 -8.1875 2.25 C-12.4775 2.25 -16.7675 2.25 -21.1875 2.25 C-21.1875 1.92 -21.1875 1.59 -21.1875 1.25 C-14.13277586 0.65769932 -7.07907914 0.15943872 0 0 Z " fill="#3A283B" transform="translate(67.1875,52.75)"/>
<path d="M0 0 C2.31 0 4.62 0 7 0 C7 9.57 7 19.14 7 29 C1.375 30.125 1.375 30.125 -2 29 C-1.86164197 24.54140138 -1.71305421 20.08320214 -1.5625 15.625 C-1.52318359 14.35398437 -1.48386719 13.08296875 -1.44335938 11.7734375 C-1.40146484 10.56171875 -1.35957031 9.35 -1.31640625 8.1015625 C-1.27974854 6.98088379 -1.24309082 5.86020508 -1.20532227 4.70556641 C-1 2 -1 2 0 0 Z " fill="#E68B65" transform="translate(123,80)"/>
<path d="M0 0 C0.88365234 0.00451172 1.76730469 0.00902344 2.67773438 0.01367188 C4.84768559 0.02540134 7.01760172 0.04333505 9.1875 0.0625 C9.1875 1.3825 9.1875 2.7025 9.1875 4.0625 C4.2375 3.7325 -0.7125 3.4025 -5.8125 3.0625 C-5.1525 6.6925 -4.4925 10.3225 -3.8125 14.0625 C-0.1825 14.3925 3.4475 14.7225 7.1875 15.0625 C7.1875 13.7425 7.1875 12.4225 7.1875 11.0625 C4.8775 11.0625 2.5675 11.0625 0.1875 11.0625 C0.1875 10.0725 0.1875 9.0825 0.1875 8.0625 C3.4875 8.0625 6.7875 8.0625 10.1875 8.0625 C11.47067892 11.91203676 11.25393637 15.00988135 11.1875 19.0625 C8.22910645 19.08939449 5.27095573 19.10928741 2.3125 19.125 C1.47074219 19.13337891 0.62898437 19.14175781 -0.23828125 19.15039062 C-1.04394531 19.15361328 -1.84960938 19.15683594 -2.6796875 19.16015625 C-3.79512939 19.16801147 -3.79512939 19.16801147 -4.93310547 19.17602539 C-6.8125 19.0625 -6.8125 19.0625 -8.8125 18.0625 C-8.8125 14.1025 -8.8125 10.1425 -8.8125 6.0625 C-9.8025 5.7325 -10.7925 5.4025 -11.8125 5.0625 C-11.1525 4.7325 -10.4925 4.4025 -9.8125 4.0625 C-9.8125 3.4025 -9.8125 2.7425 -9.8125 2.0625 C-11.4625 2.0625 -13.1125 2.0625 -14.8125 2.0625 C-14.8125 1.7325 -14.8125 1.4025 -14.8125 1.0625 C-9.89747242 -0.22985715 -5.03959898 -0.04885517 0 0 Z " fill="#143843" transform="translate(154.8125,52.9375)"/>
<path d="M0 0 C9.57 0 19.14 0 29 0 C30.7093832 3.41876639 28.95633777 7.06121965 28.0625 10.625 C27.86720703 11.42679688 27.67191406 12.22859375 27.47070312 13.0546875 C26.98668398 15.03798547 26.49413978 17.01919934 26 19 C22.7 19 19.4 19 16 19 C16.68994178 12.79052394 18.29357607 7.00957993 20 1 C13.4 1 6.8 1 0 1 C0 0.67 0 0.34 0 0 Z " fill="#7F4730" transform="translate(36,128)"/>
<path d="M0 0 C0.66 0 1.32 0 2 0 C3.15316726 6.34241995 3.09507063 12.56688704 3 19 C-0.12482562 19.08687496 -3.24934246 19.14034568 -6.375 19.1875 C-7.26445312 19.21263672 -8.15390625 19.23777344 -9.0703125 19.26367188 C-10.34648437 19.27817383 -10.34648437 19.27817383 -11.6484375 19.29296875 C-12.82672119 19.31653442 -12.82672119 19.31653442 -14.02880859 19.34057617 C-14.67930176 19.22818604 -15.32979492 19.1157959 -16 19 C-16.66 18.01 -17.32 17.02 -18 16 C-11.4 16.33 -4.8 16.66 2 17 C1.67 13.37 1.34 9.74 1 6 C-2.3 6 -5.6 6 -9 6 C-9 6.99 -9 7.98 -9 9 C-6.69 9 -4.38 9 -2 9 C-2 10.32 -2 11.64 -2 13 C-5.96 13 -9.92 13 -14 13 C-14.33 9.04 -14.66 5.08 -15 1 C-3.375 0.875 -3.375 0.875 0 2 C0 1.34 0 0.68 0 0 Z " fill="#292029" transform="translate(164,55)"/>
<path d="M0 0 C2.97 0 5.94 0 9 0 C10.98598493 5.95795479 11.57045059 11.74892565 12 18 C8.78360346 19.74565111 6.67986596 20.204437 3 20 C0.52954197 16.18384532 0.56168088 12.15255752 0.375 7.75 C0.33632812 7.00492187 0.29765625 6.25984375 0.2578125 5.4921875 C0.16394892 3.6618476 0.08090282 1.83095857 0 0 Z " fill="#B56949" transform="translate(158,109)"/>
<path d="M0 0 C1.47906892 -0.02689216 2.95827483 -0.04634621 4.4375 -0.0625 C5.26121094 -0.07410156 6.08492188 -0.08570312 6.93359375 -0.09765625 C9 0 9 0 10 1 C10.45790557 7.03357931 9.7591914 13.02136775 9 19 C5.7 19 2.4 19 -1 19 C-1.09088753 12.54698539 -0.82574651 6.39953542 0 0 Z " fill="#7F4730" transform="translate(104,128)"/>
<path d="M0 0 C2.97 0 5.94 0 9 0 C9 6.6 9 13.2 9 20 C6.03 20 3.06 20 0 20 C-0.94148531 17.17554408 -1.07311695 15.85828382 -0.87890625 12.98828125 C-0.83056641 12.23095703 -0.78222656 11.47363281 -0.73242188 10.69335938 C-0.67634766 9.90767578 -0.62027344 9.12199219 -0.5625 8.3125 C-0.51029297 7.51521484 -0.45808594 6.71792969 -0.40429688 5.89648438 C-0.27480978 3.93063478 -0.13809959 1.96526335 0 0 Z " fill="#B56849" transform="translate(121,109)"/>
<path d="M0 0 C3.27823918 2.63437298 4.05251379 5.58198929 5.26171875 9.53125 C5.45723831 10.16357544 5.65275787 10.79590088 5.85420227 11.4473877 C6.26444427 12.78077961 6.67012978 14.11558089 7.0715332 15.45166016 C7.68626298 17.49588639 8.31550834 19.53519816 8.94726562 21.57421875 C12 31.54588449 12 31.54588449 12 35 C12.66 35 13.32 35 14 35 C14.50559908 36.43554025 15.0042749 37.8735202 15.5 39.3125 C15.7784375 40.11300781 16.056875 40.91351563 16.34375 41.73828125 C17 44 17 44 17 47 C14.87561661 47.08078641 12.7503677 47.13909141 10.625 47.1875 C9.44164062 47.22230469 8.25828125 47.25710937 7.0390625 47.29296875 C5.53472656 47.14794922 5.53472656 47.14794922 4 47 C3.34 46.01 2.68 45.02 2 44 C5.3 44 8.6 44 12 44 C11.63648438 42.89527344 11.27296875 41.79054687 10.8984375 40.65234375 C7.86672383 31.31421831 5.10059148 21.93924843 2.625 12.4375 C2.36251465 11.43259521 2.1000293 10.42769043 1.82958984 9.39233398 C0 2.27092241 0 2.27092241 0 0 Z " fill="#39283A" transform="translate(197,81)"/>
<path d="M0 0 C9.24 0 18.48 0 28 0 C28 1.32 28 2.64 28 4 C26.01432292 4.22786458 24.02864583 4.45572917 22.04296875 4.68359375 C19.80603607 4.97170735 19.80603607 4.97170735 17 6 C15.72125 5.95875 14.4425 5.9175 13.125 5.875 C9.22785026 5.79648599 7.29102588 6.89740013 4 9 C1.6875 8.6875 1.6875 8.6875 0 8 C-0.33 8.99 -0.66 9.98 -1 11 C-0.67 7.37 -0.34 3.74 0 0 Z " fill="#2C2D3E" transform="translate(111,53)"/>
<path d="M0 0 C6.27 0 12.54 0 19 0 C19 0.99 19 1.98 19 3 C14.05 3 9.1 3 4 3 C4.33 3.66 4.66 4.32 5 5 C7.12576782 5.46651207 7.12576782 5.46651207 9.5625 5.625 C10.38878906 5.69976562 11.21507812 5.77453125 12.06640625 5.8515625 C12.70449219 5.90054688 13.34257812 5.94953125 14 6 C14.33 7.65 14.66 9.3 15 11 C13.72125 11.0825 12.4425 11.165 11.125 11.25 C8.94666582 11.45869931 8.94666582 11.45869931 7 12 C5.4100567 13.92064793 5.4100567 13.92064793 5 16 C4.01 16 3.02 16 2 16 C1.34 10.72 0.68 5.44 0 0 Z " fill="#045B76" transform="translate(165,53)"/>
<path d="M0 0 C0.66 0.33 1.32 0.66 2 1 C2 2.32 2 3.64 2 5 C-0.97 5 -3.94 5 -7 5 C-7 5.66 -7 6.32 -7 7 C-5.94039062 6.97679688 -4.88078125 6.95359375 -3.7890625 6.9296875 C-2.4010487 6.91093056 -1.0130273 6.89273028 0.375 6.875 C1.42300781 6.84986328 1.42300781 6.84986328 2.4921875 6.82421875 C4.32897486 6.80655733 6.16601963 6.89696739 8 7 C10 9 10 9 10 13 C3.4 13 -3.2 13 -10 13 C-10 12.34 -10 11.68 -10 11 C-10.66 11 -11.32 11 -12 11 C-11.625 9.0625 -11.625 9.0625 -11 7 C-10.34 6.67 -9.68 6.34 -9 6 C-9 5.01 -9 4.02 -9 3 C-6.03 3 -3.06 3 0 3 C0 2.01 0 1.02 0 0 Z " fill="#143742" transform="translate(180,61)"/>
<path d="M0 0 C0.78375 0.04125 1.5675 0.0825 2.375 0.125 C1.3361908 6.2362924 0.21769722 12.20204464 -1.625 18.125 C1.675 18.125 4.975 18.125 8.375 18.125 C7.715 19.115 7.055 20.105 6.375 21.125 C3.74802936 21.34637393 1.36606036 21.40662025 -1.25 21.3125 C-1.95640625 21.29896484 -2.6628125 21.28542969 -3.390625 21.27148438 C-5.13574128 21.2361104 -6.88046608 21.18230221 -8.625 21.125 C-8.191875 19.206875 -8.191875 19.206875 -7.75 17.25 C-6.77483128 12.91667986 -5.95426895 8.56609693 -5.1875 4.19140625 C-4.30700074 0.95679439 -3.34041137 0.15906721 0 0 Z " fill="#3A283B" transform="translate(53.625,128.875)"/>
<path d="M0 0 C2.97 0 5.94 0 9 0 C9.66 4.62 10.32 9.24 11 14 C8.03 14 5.06 14 2 14 C1.67 12.35 1.34 10.7 1 9 C-1.31 9 -3.62 9 -6 9 C-6 8.67 -6 8.34 -6 8 C-4.02 8 -2.04 8 0 8 C0 6.68 0 5.36 0 4 C-3.63 4 -7.26 4 -11 4 C-11 3.67 -11 3.34 -11 3 C-7.37 3 -3.74 3 0 3 C0 2.01 0 1.02 0 0 Z " fill="#E68B66" transform="translate(157,96)"/>
<path d="M0 0 C2.64 0 5.28 0 8 0 C9.32 5.28 10.64 10.56 12 16 C9.03 16 6.06 16 3 16 C3 15.34 3 14.68 3 14 C1.02 14 -0.96 14 -3 14 C-3 13.67 -3 13.34 -3 13 C-1.35 12.67 0.3 12.34 2 12 C1.34 8.04 0.68 4.08 0 0 Z " fill="#F49C78" transform="translate(189,80)"/>
<path d="M0 0 C2.97 0 5.94 0 9 0 C9.50757862 1.41396902 10.00574925 2.83131729 10.5 4.25 C10.7784375 5.03890625 11.056875 5.8278125 11.34375 6.640625 C12 9 12 9 12 13 C8.7 13 5.4 13 2 13 C0 4.5 0 4.5 0 0 Z " fill="#7F4730" transform="translate(202,134)"/>
<path d="M0 0 C6.27 0 12.54 0 19 0 C22.34821429 10.17857143 22.34821429 10.17857143 21 14 C15.25 14.125 15.25 14.125 13 13 C12.3671875 10.27734375 12.3671875 10.27734375 11.875 6.9375 C11.70742187 5.83277344 11.53984375 4.72804688 11.3671875 3.58984375 C11.24601563 2.73519531 11.12484375 1.88054687 11 1 C7.37 1 3.74 1 0 1 C0 0.67 0 0.34 0 0 Z " fill="#E68B66" transform="translate(182,96)"/>
<path d="M0 0 C1.8871875 0.0309375 1.8871875 0.0309375 3.8125 0.0625 C3.4825 1.7125 3.1525 3.3625 2.8125 5.0625 C2.02875 5.18625 1.245 5.31 0.4375 5.4375 C-2.32807822 5.85367993 -2.32807822 5.85367993 -4.1875 8.0625 C-4.80927335 9.94321945 -5.34899712 11.85147824 -5.84375 13.76953125 C-6.14410156 14.91357422 -6.44445312 16.05761719 -6.75390625 17.23632812 C-7.06199219 18.43708984 -7.37007812 19.63785156 -7.6875 20.875 C-8.29928892 23.23640282 -8.91377455 25.597109 -9.53125 27.95703125 C-9.93633789 29.53254761 -9.93633789 29.53254761 -10.34960938 31.13989258 C-11.1334892 33.87410745 -12.0798133 36.44501701 -13.1875 39.0625 C-13.6825 37.5775 -13.6825 37.5775 -14.1875 36.0625 C-13.8575 35.4025 -13.5275 34.7425 -13.1875 34.0625 C-17.1475 34.0625 -21.1075 34.0625 -25.1875 34.0625 C-25.1875 33.7325 -25.1875 33.4025 -25.1875 33.0625 C-20.8975 33.0625 -16.6075 33.0625 -12.1875 33.0625 C-12.105 32.03125 -12.0225 31 -11.9375 29.9375 C-11.15619242 23.47713584 -9.06276003 17.27266344 -7.1875 11.0625 C-9.4975 10.7325 -11.8075 10.4025 -14.1875 10.0625 C-14.1875 9.7325 -14.1875 9.4025 -14.1875 9.0625 C-11.5475 9.0625 -8.9075 9.0625 -6.1875 9.0625 C-6.1875 8.4025 -6.1875 7.7425 -6.1875 7.0625 C-10.4775 6.7325 -14.7675 6.4025 -19.1875 6.0625 C-19.1875 5.7325 -19.1875 5.4025 -19.1875 5.0625 C-14.5675 5.0625 -9.9475 5.0625 -5.1875 5.0625 C-5.1875 4.4025 -5.1875 3.7425 -5.1875 3.0625 C-5.8475 2.4025 -6.5075 1.7425 -7.1875 1.0625 C-4.43671116 0.14557039 -2.82801087 -0.04636083 0 0 Z " fill="#FEFEFE" transform="translate(73.1875,80.9375)"/>
<path d="M0 0 C0 2.31 0 4.62 0 7 C-1.98 7 -3.96 7 -6 7 C-8.86744176 12.73488351 -8.25083791 19.63212223 -9 26 C-20.88 26 -32.76 26 -45 26 C-45 25.67 -45 25.34 -45 25 C-33.45 25 -21.9 25 -10 25 C-9.67 19.39 -9.34 13.78 -9 8 C-8.67 7.34 -8.34 6.68 -8 6 C-9.65 6 -11.3 6 -13 6 C-13 5.67 -13 5.34 -13 5 C-11.35 5 -9.7 5 -8 5 C-8 4.01 -8 3.02 -8 2 C-10.97 2 -13.94 2 -17 2 C-17 1.67 -17 1.34 -17 1 C-11.29014022 0.25983299 -5.75813575 -0.10469338 0 0 Z " fill="#FFFFFF" transform="translate(117,80)"/>
<path d="M0 0 C0.98291016 0.00322266 1.96582031 0.00644531 2.97851562 0.00976562 C4.51475586 0.02233398 4.51475586 0.02233398 6.08203125 0.03515625 C7.11779297 0.03966797 8.15355469 0.04417969 9.22070312 0.04882812 C11.77870391 0.06061615 14.33658858 0.0770711 16.89453125 0.09765625 C17.22453125 1.08765625 17.55453125 2.07765625 17.89453125 3.09765625 C18.55453125 3.42765625 19.21453125 3.75765625 19.89453125 4.09765625 C16.25631427 6.42611511 13.13424183 6.33319573 8.89453125 6.09765625 C8.23453125 5.76765625 7.57453125 5.43765625 6.89453125 5.09765625 C5.08329718 5.0267942 3.26952152 5.01349302 1.45703125 5.03515625 C0.48894531 5.04417969 -0.47914062 5.05320312 -1.4765625 5.0625 C-2.34410156 5.07410156 -3.21164063 5.08570313 -4.10546875 5.09765625 C-5.09546875 5.09765625 -6.08546875 5.09765625 -7.10546875 5.09765625 C-6.77546875 4.10765625 -6.44546875 3.11765625 -6.10546875 2.09765625 C-6.76546875 1.76765625 -7.42546875 1.43765625 -8.10546875 1.09765625 C-5.10530963 0.09760321 -3.13123119 -0.0180996 0 0 Z " fill="#A0D8EA" transform="translate(84.10546875,52.90234375)"/>
<path d="M0 0 C1.56814453 -0.03867187 1.56814453 -0.03867187 3.16796875 -0.078125 C5.8125 0.25 5.8125 0.25 7.67578125 1.765625 C8.05089844 2.25546875 8.42601563 2.7453125 8.8125 3.25 C7.4925 4.24 6.1725 5.23 4.8125 6.25 C4.1525 5.92 3.4925 5.59 2.8125 5.25 C-2.79453213 5.03622279 -2.79453213 5.03622279 -8.1875 6.25 C-8.92206678 8.22280409 -8.92206678 8.22280409 -9.25 10.5625 C-9.81341884 13.80886568 -10.59204683 16.35699985 -12.1875 19.25 C-13.1875 17.25 -13.1875 17.25 -12.41015625 14.6484375 C-11.83587891 13.15183594 -11.83587891 13.15183594 -11.25 11.625 C-10.67958984 10.12066406 -10.67958984 10.12066406 -10.09765625 8.5859375 C-9.79730469 7.81507812 -9.49695312 7.04421875 -9.1875 6.25 C-11.4975 6.25 -13.8075 6.25 -16.1875 6.25 C-16.1875 5.92 -16.1875 5.59 -16.1875 5.25 C-13.5475 5.25 -10.9075 5.25 -8.1875 5.25 C-8.1875 4.26 -8.1875 3.27 -8.1875 2.25 C-12.4775 2.25 -16.7675 2.25 -21.1875 2.25 C-21.1875 1.92 -21.1875 1.59 -21.1875 1.25 C-14.13277586 0.65769932 -7.07907914 0.15943872 0 0 Z " fill="#F5FCFE" transform="translate(67.1875,52.75)"/>
<path d="M0 0 C1.27875 -0.061875 2.5575 -0.12375 3.875 -0.1875 C4.95394531 -0.23970703 4.95394531 -0.23970703 6.0546875 -0.29296875 C6.69664063 -0.19628906 7.33859375 -0.09960938 8 0 C10 3 10 3 9.875 4.9375 C8.65190128 7.82051841 7.56444534 9.15885976 5 11 C2.24188682 11.33751289 -0.20417656 11.18638823 -3 11 C-2.01 7.37 -1.02 3.74 0 0 Z " fill="#39283A" transform="translate(62,57)"/>
<path d="M0 0 C1.65 0 3.3 0 5 0 C3.02 7.59 1.04 15.18 -1 23 C-2.65 23 -4.3 23 -6 23 C-5.71125 21.81921875 -5.4225 20.6384375 -5.125 19.421875 C-4.74976277 17.86464048 -4.37477586 16.30734562 -4 14.75 C-3.71382812 13.58404297 -3.71382812 13.58404297 -3.421875 12.39453125 C-3.24140625 11.64042969 -3.0609375 10.88632813 -2.875 10.109375 C-2.70742188 9.41811523 -2.53984375 8.72685547 -2.3671875 8.01464844 C-1.88046329 5.68544376 -1.88046329 5.68544376 -2 2 C-1.34 2 -0.68 2 0 2 C0 1.34 0 0.68 0 0 Z " fill="#382739" transform="translate(62,91)"/>
<path d="M0 0 C1.32 0 2.64 0 4 0 C4.33 2.64 4.66 5.28 5 8 C-2.92 8.33 -10.84 8.66 -19 9 C-19 7.68 -19 6.36 -19 5 C-12.4 5 -5.8 5 1 5 C0.67 3.35 0.34 1.7 0 0 Z " fill="#3A283B" transform="translate(184,84)"/>
<path d="M0 0 C3.40667322 0.44824648 5.07914607 1.05276405 8 3 C8 2.01 8 1.02 8 0 C9.32 0.33 10.64 0.66 12 1 C11.67 4.3 11.34 7.6 11 11 C9.35 10.67 7.7 10.34 6 10 C6 9.34 6 8.68 6 8 C5.34 8 4.68 8 4 8 C4 7.34 4 6.68 4 6 C3.34 6 2.68 6 2 6 C0.375 3.5 0.375 3.5 -1 1 C-0.67 0.67 -0.34 0.34 0 0 Z " fill="#0D4D61" transform="translate(103,61)"/>
<path d="M0 0 C0.88365234 0.00451172 1.76730469 0.00902344 2.67773438 0.01367188 C4.84768559 0.02540134 7.01760172 0.04333505 9.1875 0.0625 C9.1875 1.3825 9.1875 2.7025 9.1875 4.0625 C4.2375 3.7325 -0.7125 3.4025 -5.8125 3.0625 C-6.4725 5.3725 -7.1325 7.6825 -7.8125 10.0625 C-7.915625 9.423125 -8.01875 8.78375 -8.125 8.125 C-8.4653125 7.1040625 -8.4653125 7.1040625 -8.8125 6.0625 C-9.8025 5.7325 -10.7925 5.4025 -11.8125 5.0625 C-11.1525 4.7325 -10.4925 4.4025 -9.8125 4.0625 C-9.8125 3.4025 -9.8125 2.7425 -9.8125 2.0625 C-11.4625 2.0625 -13.1125 2.0625 -14.8125 2.0625 C-14.8125 1.7325 -14.8125 1.4025 -14.8125 1.0625 C-9.89747242 -0.22985715 -5.03959898 -0.04885517 0 0 Z " fill="#C0E7F2" transform="translate(154.8125,52.9375)"/>
<path d="M0 0 C1 2 1 2 0.44140625 3.9453125 C-0.37239583 5.96354167 -1.18619792 7.98177083 -2 10 C1.96 10 5.92 10 10 10 C10 10.99 10 11.98 10 13 C6.57767028 14.14077657 3.91326783 14.09815117 0.3125 14.0625 C-1.45673828 14.04896484 -1.45673828 14.04896484 -3.26171875 14.03515625 C-4.16535156 14.02355469 -5.06898437 14.01195313 -6 14 C-5.3844197 11.85144546 -4.75726569 9.70620375 -4.125 7.5625 C-3.77695312 6.36753906 -3.42890625 5.17257813 -3.0703125 3.94140625 C-2 1 -2 1 0 0 Z " fill="#133843" transform="translate(61,58)"/>
<path d="M0 0 C4 2 4 2 5.75 5.25 C6.93511657 8.80534972 7.27096425 11.29682186 7 15 C5.41753293 15.08153933 3.83383727 15.13943557 2.25 15.1875 C1.36828125 15.22230469 0.4865625 15.25710937 -0.421875 15.29296875 C-3 15 -3 15 -7 12 C-3.7 12 -0.4 12 3 12 C2.01 8.04 1.02 4.08 0 0 Z " fill="#3A283B" transform="translate(211,135)"/>
<path d="M0 0 C2.05078125 0.03255208 4.1015625 0.06510417 6.15234375 0.09765625 C6.15234375 1.41765625 6.15234375 2.73765625 6.15234375 4.09765625 C5.49234375 4.09765625 4.83234375 4.09765625 4.15234375 4.09765625 C4.15234375 5.74765625 4.15234375 7.39765625 4.15234375 9.09765625 C1.18234375 9.09765625 -1.78765625 9.09765625 -4.84765625 9.09765625 C-4.84765625 8.10765625 -4.84765625 7.11765625 -4.84765625 6.09765625 C-4.18765625 6.09765625 -3.52765625 6.09765625 -2.84765625 6.09765625 C-2.87859375 4.89109375 -2.87859375 4.89109375 -2.91015625 3.66015625 C-2.82452531 0.14928781 -2.82452531 0.14928781 0 0 Z " fill="#191819" transform="translate(82.84765625,58.90234375)"/>
<path d="M0 0 C5.94 0 11.88 0 18 0 C18 1.32 18 2.64 18 4 C11.64823316 4.8330186 6.38886408 4.96435684 0 4 C0 2.68 0 1.36 0 0 Z " fill="#A3DCED" transform="translate(121,53)"/>
<path d="M0 0 C0.66 0 1.32 0 2 0 C2 1.32 2 2.64 2 4 C8.6 4 15.2 4 22 4 C22 4.99 22 5.98 22 7 C14.74 7 7.48 7 0 7 C0 4.69 0 2.38 0 0 Z " fill="#39283A" transform="translate(134,85)"/>
<path d="M0 0 C2.31 0 4.62 0 7 0 C7 2.31 7 4.62 7 7 C5.02 7 3.04 7 1 7 C0.67 12.94 0.34 18.88 0 25 C-0.66 25.33 -1.32 25.66 -2 26 C-1.86157705 22.04137069 -1.71300994 18.08318673 -1.5625 14.125 C-1.52318359 12.99707031 -1.48386719 11.86914062 -1.44335938 10.70703125 C-1.40146484 9.63066406 -1.35957031 8.55429688 -1.31640625 7.4453125 C-1.27974854 6.45031738 -1.24309082 5.45532227 -1.20532227 4.43017578 C-1 2 -1 2 0 0 Z " fill="#FCEAE2" transform="translate(123,80)"/>
<path d="M0 0 C0.66 0 1.32 0 2 0 C2.66 6.27 3.32 12.54 4 19 C0.04 19 -3.92 19 -8 19 C-8 18.01 -8 17.02 -8 16 C-5.03 16 -2.06 16 1 16 C0.67 10.72 0.34 5.44 0 0 Z " fill="#362637" transform="translate(171,131)"/>
<path d="M0 0 C2.625 -0.1875 2.625 -0.1875 5 0 C6.2380014 3.57644848 5.74926071 6.33694766 5 10 C2.69 10 0.38 10 -2 10 C-2.25 3.375 -2.25 3.375 0 0 Z " fill="#F49C78" transform="translate(111,86)"/>
<path d="M0 0 C2.5 0.125 2.5 0.125 3.5 1.125 C3.57179964 2.64428038 3.58392007 4.16667482 3.5625 5.6875 C3.55347656 6.51378906 3.54445312 7.34007813 3.53515625 8.19140625 C3.51775391 9.14853516 3.51775391 9.14853516 3.5 10.125 C1.19 10.125 -1.12 10.125 -3.5 10.125 C-3.52689216 8.64593108 -3.54634621 7.16672517 -3.5625 5.6875 C-3.57410156 4.86378906 -3.58570312 4.04007812 -3.59765625 3.19140625 C-3.4527802 0.12582896 -3.07795841 0.15389792 0 0 Z " fill="#F49C78" transform="translate(126.5,85.875)"/>
<path d="M0 0 C2.31 0 4.62 0 7 0 C6.34 3.3 5.68 6.6 5 10 C2.69 10 0.38 10 -2 10 C-1.34 6.7 -0.68 3.4 0 0 Z " fill="#F49C78" transform="translate(69,86)"/>
<path d="M0 0 C6.27 0 12.54 0 19 0 C19.33 0.99 19.66 1.98 20 3 C17.36 3 14.72 3 12 3 C11.67 3.99 11.34 4.98 11 6 C10.34 5.67 9.68 5.34 9 5 C9 4.34 9 3.68 9 3 C6.36 3 3.72 3 1 3 C0.67 2.01 0.34 1.02 0 0 Z " fill="#E9F8FD" transform="translate(185,53)"/>
<path d="M0 0 C6.27 0 12.54 0 19 0 C19 0.99 19 1.98 19 3 C14.05 3 9.1 3 4 3 C3.34 4.32 2.68 5.64 2 7 C1.67 7 1.34 7 1 7 C0.67 4.69 0.34 2.38 0 0 Z " fill="#BBE5F1" transform="translate(165,53)"/>
<path d="M0 0 C0 0.99 0 1.98 0 3 C-1.66611905 3.042721 -3.33382885 3.04063832 -5 3 C-5.33 2.67 -5.66 2.34 -6 2 C-7.85105071 1.95512088 -7.85105071 1.95512088 -10.03515625 2.12109375 C-10.84404297 2.16943359 -11.65292969 2.21777344 -12.48632812 2.26757812 C-13.33646484 2.32365234 -14.18660156 2.37972656 -15.0625 2.4375 C-16.34350586 2.51581055 -16.34350586 2.51581055 -17.65039062 2.59570312 C-19.76721995 2.72578761 -21.88365244 2.86229971 -24 3 C-24.33 2.01 -24.66 1.02 -25 0 C-16.50791416 -0.73598077 -8.46904477 -1.29526567 0 0 Z " fill="#39293C" transform="translate(194,56)"/>
<path d="M0 0 C2.64 0 5.28 0 8 0 C8.33 2.31 8.66 4.62 9 7 C6.36 7 3.72 7 1 7 C0.67 4.69 0.34 2.38 0 0 Z " fill="#FBDED2" transform="translate(189,80)"/>
<path d="M0 0 C1 3 1 3 1 5 C7.93 5.495 7.93 5.495 15 6 C14.67 6.66 14.34 7.32 14 8 C8.39 8 2.78 8 -3 8 C-3.33 7.01 -3.66 6.02 -4 5 C-2.0625 2.3125 -2.0625 2.3125 0 0 Z " fill="#3A283B" transform="translate(74,66)"/>
<path d="M0 0 C3.3 0 6.6 0 10 0 C10.33 2.64 10.66 5.28 11 8 C9.68 7.67 8.36 7.34 7 7 C7 5.68 7 4.36 7 3 C4.69 3 2.38 3 0 3 C0 2.01 0 1.02 0 0 Z " fill="#0C4E63" transform="translate(155,61)"/>
<path d="M0 0 C1.32 0.33 2.64 0.66 4 1 C4.6875 2.75 4.6875 2.75 5 5 C3.875 7.25 3.875 7.25 2 9 C-0.6875 9.25 -0.6875 9.25 -3 9 C-2.01 6.03 -1.02 3.06 0 0 Z " fill="#181818" transform="translate(62,59)"/>
<path d="M0 0 C0.66 0.33 1.32 0.66 2 1 C2 2.32 2 3.64 2 5 C-4.6 5 -11.2 5 -18 5 C-18 4.34 -18 3.68 -18 3 C-12.06 3 -6.12 3 0 3 C0 2.01 0 1.02 0 0 Z " fill="#3A283B" transform="translate(188,69)"/>
<path d="M0 0 C3.63 0 7.26 0 11 0 C12.31625194 2.63250388 11.74813658 3.80179056 11.0625 6.625 C10.86785156 7.44226563 10.67320313 8.25953125 10.47265625 9.1015625 C10.31667969 9.72804688 10.16070312 10.35453125 10 11 C9.01 11 8.02 11 7 11 C7 9.35 7 7.7 7 6 C7.66 6 8.32 6 9 6 C9 4.68 9 3.36 9 2 C6.36 2 3.72 2 1 2 C0.67 1.34 0.34 0.68 0 0 Z " fill="#37283A" transform="translate(80,57)"/>
<path d="M0 0 C1.70884005 1.62339805 3.37446717 3.29319053 5 5 C5 5.66 5 6.32 5 7 C5.66 7 6.32 7 7 7 C7 7.66 7 8.32 7 9 C7.66 9 8.32 9 9 9 C10.625 10.375 10.625 10.375 12 12 C12 12.66 12 13.32 12 14 C6.91963321 13.4355148 4.37566537 9.56541231 1.1875 5.9375 C0 4 0 4 0 0 Z " fill="#39283A" transform="translate(100,60)"/>
<path d="M0 0 C4.29 0 8.58 0 13 0 C13 0.66 13 1.32 13 2 C11.72125 2.0825 10.4425 2.165 9.125 2.25 C6.94666582 2.45869931 6.94666582 2.45869931 5 3 C3.4100567 4.92064793 3.4100567 4.92064793 3 7 C2.01 7 1.02 7 0 7 C0 4.69 0 2.38 0 0 Z " fill="#0F4A5C" transform="translate(167,62)"/>
<path d="M0 0 C1.32 0 2.64 0 4 0 C4 3.63 4 7.26 4 11 C2.68 10.67 1.36 10.34 0 10 C0 6.7 0 3.4 0 0 Z " fill="#0C5369" transform="translate(128,58)"/>
<path d="M0 0 C0.99 1.32 1.98 2.64 3 4 C3.66 4.33 4.32 4.66 5 5 C5 6.65 5 8.3 5 10 C2.69 10 0.38 10 -2 10 C-1.34 6.7 -0.68 3.4 0 0 Z " fill="#1A3541" transform="translate(94,64)"/>
<path d="M0 0 C2.31 0 4.62 0 7 0 C7 1.98 7 3.96 7 6 C4.69 6 2.38 6 0 6 C0 4.02 0 2.04 0 0 Z " fill="#FBD8C8" transform="translate(110,81)"/>
<path d="M0 0 C1.32 0 2.64 0 4 0 C4.99 3.63 5.98 7.26 7 11 C5.68 10.67 4.36 10.34 3 10 C1.953125 7.71484375 1.953125 7.71484375 1.25 4.9375 C1.00765625 4.01839844 0.7653125 3.09929688 0.515625 2.15234375 C0.34546875 1.44207031 0.1753125 0.73179688 0 0 Z " fill="#0B5369" transform="translate(194,58)"/>
<path d="M0 0 C4.95 0 9.9 0 15 0 C15.33 0.66 15.66 1.32 16 2 C14.125 3.0625 14.125 3.0625 12 4 C11.34 3.67 10.68 3.34 10 3 C8.08499697 2.84101146 8.08499697 2.84101146 6 2.875 C5.29875 2.87242188 4.5975 2.86984375 3.875 2.8671875 C1.90846225 2.88622764 1.90846225 2.88622764 0 4 C0 2.68 0 1.36 0 0 Z " fill="#5CBCDA" transform="translate(60,55)"/>
<path d="M0 0 C0.33 0 0.66 0 1 0 C1 2.64 1 5.28 1 8 C3.97 8 6.94 8 10 8 C10 8.99 10 9.98 10 11 C6.7 11 3.4 11 0 11 C0 7.37 0 3.74 0 0 Z " fill="#3A283B" transform="translate(119,139)"/>
<path d="M0 0 C2.31 0 4.62 0 7 0 C7 1.98 7 3.96 7 6 C4.69 6 2.38 6 0 6 C0 4.02 0 2.04 0 0 Z " fill="#392838" transform="translate(51,122)"/>
<path d="M0 0 C1.32 0 2.64 0 4 0 C4 2.97 4 5.94 4 9 C2.68 8.67 1.36 8.34 0 8 C-0.33 8.99 -0.66 9.98 -1 11 C-0.67 7.37 -0.34 3.74 0 0 Z " fill="#93C5D5" transform="translate(111,53)"/>
<path d="M0 0 C1.43655854 -0.08131463 2.8744483 -0.13933559 4.3125 -0.1875 C5.51326172 -0.23970703 5.51326172 -0.23970703 6.73828125 -0.29296875 C9.47851584 0.06198392 10.29171079 0.89366282 12 3 C7.25 4.125 7.25 4.125 5 3 C4.34 3.66 3.68 4.32 3 5 C2.01 4.67 1.02 4.34 0 4 C0 2.68 0 1.36 0 0 Z " fill="#05617D" transform="translate(96,58)"/>
<path d="M0 0 C2.79908133 2.79908133 2.72362983 5.13081763 3 9 C2.34 9.66 1.68 10.32 1 11 C0.01 10.67 -0.98 10.34 -2 10 C-1.85950482 8.52031676 -1.71245174 7.04125484 -1.5625 5.5625 C-1.48128906 4.73878906 -1.40007812 3.91507813 -1.31640625 3.06640625 C-1 1 -1 1 0 0 Z " fill="#0B4E63" transform="translate(148,58)"/>
<path d="M0 0 C3.63 0.33 7.26 0.66 11 1 C11 1.99 11 2.98 11 4 C7.37 4 3.74 4 0 4 C0 2.68 0 1.36 0 0 Z " fill="#3B283B" transform="translate(102,146)"/>
<path d="M0 0 C1.65 0 3.3 0 5 0 C4.67 1.98 4.34 3.96 4 6 C2.35 6 0.7 6 -1 6 C-1.33 4.68 -1.66 3.36 -2 2 C-1.34 2 -0.68 2 0 2 C0 1.34 0 0.68 0 0 Z " fill="#39283A" transform="translate(55,115)"/>
<path d="M0 0 C2.31 0 4.62 0 7 0 C6.34 1.65 5.68 3.3 5 5 C3.35 5 1.7 5 0 5 C0 3.35 0 1.7 0 0 Z " fill="#FAD1BF" transform="translate(70,82)"/>
<path d="M0 0 C0.66 0.33 1.32 0.66 2 1 C2 2.32 2 3.64 2 5 C-0.97 5 -3.94 5 -7 5 C-7 5.66 -7 6.32 -7 7 C-7.66 6.67 -8.32 6.34 -9 6 C-9 5.01 -9 4.02 -9 3 C-6.03 3 -3.06 3 0 3 C0 2.01 0 1.02 0 0 Z " fill="#3A283B" transform="translate(180,61)"/>
<path d="M0 0 C5.94 0 11.88 0 18 0 C18 0.33 18 0.66 18 1 C15.36 1 12.72 1 10 1 C9.67 1.99 9.34 2.98 9 4 C8.34 3.67 7.68 3.34 7 3 C7 2.34 7 1.68 7 1 C4.69 1 2.38 1 0 1 C0 0.67 0 0.34 0 0 Z " fill="#5DBDDB" transform="translate(187,55)"/>
<path d="M0 0 C1.2065625 0.0309375 1.2065625 0.0309375 2.4375 0.0625 C2.7675 1.7125 3.0975 3.3625 3.4375 5.0625 C1.7875 4.7325 0.1375 4.4025 -1.5625 4.0625 C-1.5625 3.4025 -1.5625 2.7425 -1.5625 2.0625 C-2.2225 1.7325 -2.8825 1.4025 -3.5625 1.0625 C-2.5625 0.0625 -2.5625 0.0625 0 0 Z " fill="#133A46" transform="translate(110.5625,66.9375)"/>
<path d="M0 0 C1 2 1 2 0.44140625 4.1640625 C0.15136719 4.97617187 -0.13867188 5.78828125 -0.4375 6.625 C-0.72496094 7.44226563 -1.01242188 8.25953125 -1.30859375 9.1015625 C-1.53675781 9.72804688 -1.76492187 10.35453125 -2 11 C-2.66 10.67 -3.32 10.34 -4 10 C-3.71872579 8.51882199 -3.42466268 7.04006751 -3.125 5.5625 C-2.96257813 4.73878906 -2.80015625 3.91507813 -2.6328125 3.06640625 C-2.42398438 2.38449219 -2.21515625 1.70257813 -2 1 C-1.34 0.67 -0.68 0.34 0 0 Z " fill="#095167" transform="translate(61,58)"/>
<path d="M0 0 C1.32 0.33 2.64 0.66 4 1 C3.67 2.98 3.34 4.96 3 7 C2.34 7 1.68 7 1 7 C0.67 4.69 0.34 2.38 0 0 Z " fill="#223240" transform="translate(128,68)"/>
<path d="M0 0 C1.32 0 2.64 0 4 0 C3.67 1.65 3.34 3.3 3 5 C2.01 5 1.02 5 0 5 C0 3.35 0 1.7 0 0 Z " fill="#9CD6E8" transform="translate(116,53)"/>
<path d="M0 0 C1.98 0 3.96 0 6 0 C6 0.99 6 1.98 6 3 C4.02 3 2.04 3 0 3 C0 2.01 0 1.02 0 0 Z " fill="#3B293C" transform="translate(53,55)"/>
<path d="M0 0 C0.33 0.66 0.66 1.32 1 2 C2.65 2 4.3 2 6 2 C6 2.66 6 3.32 6 4 C3.69 4 1.38 4 -1 4 C-0.67 2.68 -0.34 1.36 0 0 Z " fill="#3A283B" transform="translate(93,70)"/>
<path d="M0 0 C1.32 0.33 2.64 0.66 4 1 C3.67 2.32 3.34 3.64 3 5 C2.01 4.67 1.02 4.34 0 4 C0 2.68 0 1.36 0 0 Z " fill="#015A75" transform="translate(96,58)"/>
<path d="M0 0 C1.65 0 3.3 0 5 0 C5.33 1.32 5.66 2.64 6 4 C4.35 4 2.7 4 1 4 C0.67 2.68 0.34 1.36 0 0 Z " fill="#05627E" transform="translate(71,58)"/>
</svg>
